# xmcd
#
# Track frame offsets: 
#        150
#        8675
#        23368
#        39280
#        59036
#        76203
#        91786
#        107871
#        130099
#        145908
#        162921
#        175516
#        192215
#        209132
#        222611
#
# Disc length: 3290 seconds
#
# Revision: 0
# Processed by: cddbd v1.5.2PL0 Copyright (c) Steve Scherf et al.
# Submitted via: ExactAudioCopy v0.95a5
#
DISCID=c60cd80f
DTITLE=Jan Van Brusselband - Bruxelles Central
DYEAR=2006
DGENRE=Folk
TTITLE0=Intro
TTITLE1=Thuis
TTITLE2=Opzij
TTITLE3=Cheers
TTITLE4=Las Palmas
TTITLE5=Onderweg
TTITLE6=Onze Juf
TTITLE7=Bartender
TTITLE8=Volk
TTITLE9=Mooie Muziek
TTITLE10=Laat Me Niet Alleen
TTITLE11=De Grens
TTITLE12=De Ramen De Kruk En De Fles
TTITLE13=Mijn Fout
TTITLE14=Zegetocht
EXTD=
EXTT0=
EXTT1=
EXTT2=
EXTT3=
EXTT4=
EXTT5=
EXTT6=
EXTT7=
EXTT8=
EXTT9=
EXTT10=
EXTT11=
EXTT12=
EXTT13=
EXTT14=
PLAYORDER=
